# xmcd
#
# Track frame offsets: 
#        183
#        7870
#        25060
#        27593
#        41710
#        61648
#        65268
#        70345
#        81045
#        88420
#        110778
#        135060
#        138323
#        159053
#        171670
#        175110
#        185700
#        195750
#        205003
#        210230
#        231663
#        234258
#
# Disc length: 3215 seconds
#
# Revision: 0
# Processed by: cddbd v1.4PL0 Copyright (c) Steve Scherf et al.
# Submitted via: ExactAudioCopy v0.95a3
#
DISCID=1f0c8d16
DTITLE=Levine, Scotto, Kraus, Milnes, Neblett - Puccini - LA BOHEME (1
DTITLE=979 - Levine) CD 1 of 2
DYEAR=1979
DGENRE=Opera
TTITLE0=Questo mar rosso
TTITLE1=Ho ghiacciate le dita
TTITLE2=Legna! Sigari! Bordo!
TTITLE3=Pr vi diro. Quest'oro, o meglio argente
TTITLE4=Si puo? ... Chi e la? .. Benoit
TTITLE5=Ah ah ah. Ho pagate
TTITLE6=Io resto per terminar
TTITLE7=Nin sono in vena .. .Chi e la?
TTITLE8=Oh, sventata, sventata, la chiave della stanza
TTITLE9=Che gelida manina
TTITLE10=Mi chaimano Mimi
TTITLE11=Eh! Rodolfo!
TTITLE12=O soave fanciulla
TTITLE13=Aranci! Datteri!Caldi i marroni!
TTITLE14=Chi guardi?
TTITLE15=Questa e mimi.
TTITLE16=Viva Parpignol!
TTITLE17=Oh! Musetta!
TTITLE18=TU non mi guardi
TTITLE19=Quando m'en vo
TTITLE20=Caro!
TTITLE21=Presto, sommate quello con questo
EXTD=
EXTT0=
EXTT1=
EXTT2=
EXTT3=
EXTT4=
EXTT5=
EXTT6=
EXTT7=
EXTT8=
EXTT9=
EXTT10=
EXTT11=
EXTT12=
EXTT13=
EXTT14=
EXTT15=
EXTT16=
EXTT17=
EXTT18=
EXTT19=
EXTT20=
EXTT21=
PLAYORDER=
